<?xml version="1.0" encoding="UTF-8"?>
<svg id="Capa_1" data-name="Capa 1" xmlns="http://www.w3.org/2000/svg" viewBox="0 0 50 50">
  <defs>
    <style>
      .cls-1 {
        fill: #2d3343;
        stroke: #2d3343;
      }

      .cls-1, .cls-2 {
        stroke-miterlimit: 10;
      }

      .cls-2 {
        fill: #d9d9d9;
        stroke: #d9d9d9;
      }
    </style>
  </defs>
  <circle class="cls-2" cx="25" cy="25" r="24.5"/>
  <path class="cls-1" d="M25.21,27.6l3.93,4.6h8.47v.83c0,.36.39.6.72.43l5.27-2.64c.36-.18.36-.7,0-.87l-5.27-2.64c-.32-.17-.72.07-.72.43v.83h-8.47l-2.39-2.78"/>
  <polyline class="cls-1" points="23.66 25.79 23.66 25.78 21.27 23 11.03 23 11.03 19.38 21.27 19.38 25.21 23.98"/>
  <path class="cls-1" d="M43.59,21.63l-5.27,2.64c-.32.17-.72-.07-.72-.43v-.83h-8.47l-7.87,9.19h-10.23v-3.62h10.23l7.87-9.19h8.47v-.83c0-.36.39-.6.72-.43l5.27,2.64c.36.18.36.7,0,.87Z"/>
</svg>