<?xml version="1.0" encoding="UTF-8"?>
<svg id="Capa_1" data-name="Capa 1" xmlns="http://www.w3.org/2000/svg" viewBox="0 0 50 50">
  <defs>
    <style>
      .cls-1 {
        fill: none;
        stroke: #0b0c0e;
      }

      .cls-1, .cls-2, .cls-3 {
        stroke-miterlimit: 10;
      }

      .cls-2 {
        fill: #d9d9d9;
        stroke: #d9d9d9;
      }

      .cls-3 {
        fill: #2d3344;
        stroke: #2d3344;
      }
    </style>
  </defs>
  <circle class="cls-3" cx="25" cy="25" r="24.5"/>
  <path class="cls-2" d="M37.73,20.57v13.03c0,.93-.75,1.69-1.69,1.69H13.25c-.93,0-1.69-.75-1.69-1.69v-17.25c0-.93.75-1.69,1.69-1.69h8.88c.54,0,1.05.25,1.36.7l2.05,2.82c.31.44.82.7,1.36.7h9.15c.92,0,1.68.75,1.68,1.69Z"/>
  <path class="cls-1" d="M25,20.41v9.55-9.55Z"/>
  <line class="cls-1" x1="20.21" y1="31.79" x2="30.01" y2="31.79"/>
  <polyline class="cls-1" points="29.47 26.3 25.01 30.36 25 30.36 20.53 26.3"/>
</svg>