<?xml version="1.0" encoding="UTF-8"?>
<svg id="Capa_1" data-name="Capa 1" xmlns="http://www.w3.org/2000/svg" viewBox="0 0 50 50">
  <defs>
    <style>
      .cls-1 {
        fill: #2d3343;
        stroke: #2d3343;
      }

      .cls-1, .cls-2 {
        stroke-miterlimit: 10;
      }

      .cls-2 {
        fill: none;
        stroke: #d9d9d9;
      }

      .cls-3 {
        fill: #d9d9d9;
        stroke-width: 0px;
      }
    </style>
  </defs>
  <g>
    <circle class="cls-3" cx="25" cy="25" r="24.5"/>
    <circle class="cls-2" cx="25" cy="25" r="24.5"/>
  </g>
  <g>
    <path class="cls-1" d="M21.86,16.28v17.44c0,.86-.71,1.57-1.57,1.57h-3.04c-.86,0-1.57-.71-1.57-1.57v-17.44c0-.87.71-1.57,1.57-1.57h3.04c.86,0,1.57.7,1.57,1.57Z"/>
    <path class="cls-1" d="M20.3,14.71h-3.04c-.86,0-1.57.7-1.57,1.57v17.44c0,.86.71,1.57,1.57,1.57h3.04c.86,0,1.57-.71,1.57-1.57v-17.44c0-.87-.71-1.57-1.57-1.57Z"/>
  </g>
  <g>
    <path class="cls-1" d="M34.16,16.19v17.44c0,.87-.71,1.57-1.57,1.57h-3.04c-.86,0-1.57-.7-1.57-1.57v-17.44c0-.86.71-1.57,1.57-1.57h3.04c.86,0,1.57.71,1.57,1.57Z"/>
    <path class="cls-1" d="M32.59,14.62h-3.04c-.86,0-1.57.71-1.57,1.57v17.44c0,.87.71,1.57,1.57,1.57h3.04c.86,0,1.57-.7,1.57-1.57v-17.44c0-.86-.71-1.57-1.57-1.57Z"/>
  </g>
</svg>