<?xml version="1.0" encoding="UTF-8"?>
<svg id="Capa_1" data-name="Capa 1" xmlns="http://www.w3.org/2000/svg" viewBox="0 0 50 50">
  <defs>
    <style>
      .cls-1 {
        fill: #2c2a2d;
        stroke: #2c2a2d;
      }

      .cls-1, .cls-2 {
        stroke-miterlimit: 10;
      }

      .cls-2 {
        fill: #d11721;
        stroke: #d11721;
      }
    </style>
  </defs>
  <circle class="cls-1" cx="25" cy="25" r="24.5"/>
  <path class="cls-2" d="M20.3,14.71h-3.04c-.86,0-1.57.71-1.57,1.57v17.44c0,.86.71,1.57,1.57,1.57h3.03c.86,0,1.57-.71,1.57-1.57v-17.44c0-.87-.7-1.57-1.56-1.57Z"/>
  <path class="cls-2" d="M32.59,14.62h-3.03c-.86,0-1.57.71-1.57,1.57v17.44c0,.86.71,1.57,1.57,1.57h3.03c.86,0,1.57-.71,1.57-1.57v-17.44c0-.86-.71-1.57-1.57-1.57Z"/>
</svg>