<?xml version="1.0" encoding="UTF-8"?>
<svg id="Capa_1" data-name="Capa 1" xmlns="http://www.w3.org/2000/svg" viewBox="0 0 50 50">
  <defs>
    <style>
      .cls-1 {
        fill: #2d3343;
      }

      .cls-1, .cls-2, .cls-3 {
        stroke-miterlimit: 10;
      }

      .cls-1, .cls-3 {
        stroke: #2d3343;
      }

      .cls-2 {
        fill: #d9d9d9;
        stroke: #d9d9d9;
      }

      .cls-3 {
        fill: none;
      }
    </style>
  </defs>
  <circle class="cls-2" cx="25" cy="25" r="24.5"/>
  <path class="cls-1" d="M26.3,14.9v20.58h0c-2.77-3.53-4.15-4.36-7.54-5.39h-6.54v-9.8h6.54c3.74-1.63,3.58-1.93,7.54-5.39h0Z"/>
  <path class="cls-3" d="M28.45,22.74c.87.45,1.45,1.41,1.48,2.48.05,1.5-1.01,2.36-1.08,2.42"/>
  <path class="cls-3" d="M31.33,21c.9.72,1.49,2.26,1.53,3.97.05,2.4-1.04,3.78-1.12,3.87"/>
  <path class="cls-3" d="M34.14,19.55c.9.98,1.49,3.11,1.53,5.46.05,3.3-1.04,5.19-1.12,5.32"/>
</svg>